<?xml version="1.0" encoding="UTF-8" standalone="no"?>
<svg viewBox="0 0 57 88" xmlns="http://www.w3.org/2000/svg" xmlns:xlink="http://www.w3.org/1999/xlink" aria-labelledby="cK-title">
  <title id="cK-title">King of clubs</title>
	<symbol id="cK-suit" width="8" height="10">
		<path d="M 3 0 h 2 l 1 1 v 2 l -1 1 h 2 l 1 1 v 2 l -1 1 h -1 l -1 -1 l 1 3 h -4 l 1 -3 l -1 1 h -1 l -1 -1 v -2 l 1 -1 h 2 l -1 -1 v -2 z"></path>
	</symbol>
	<symbol id="cK-rank" width="8" height="12">
		<path d="M 0 0 h 2 v 5 l 4 -5 h 2 l -4 5 l 4 7 h -2 l -3 -5 h -1 v 5 h -2 z"></path>
	</symbol>
	<symbol id="cK-special" width="10" height="12">
		<path d="M 1 2 l 2 3 l 2 -3 l 2 3 l 2 -3 v 7 h -8 z"></path>
		<path id="cK-crown-dot" d="M 1 0 l 1 1 l -1 1 l -1 -1 z"></path>
		<use xlink:href="#cK-crown-dot" transform="translate(4, 0)"></use>
		<use xlink:href="#cK-crown-dot" transform="translate(8, 0)"></use>
		<rect x="1" y="10" width="8" height="2"></rect>
	</symbol>
	<symbol id="cK-index" width="57" height="88">
		<use xlink:href="#cK-rank" x="6" y="6"></use>
		<use xlink:href="#cK-suit" x="6" y="20"></use>
	</symbol>
	
	<rect x="1.5" y="1.5" width="54" height="85" fill="#fff"></rect>
	<path d="M 2 0 h 53 l 2 2 v 84 l -2 2 h -53 l -2 -2 v -84 z m 0 2 v 84 h 53 v -84 z" fill="var(--color-dark)"></path>
	<g style="fill: var(--color-dark);">
		<use xlink:href="#cK-index"></use>
		<use xlink:href="#cK-index" transform="rotate(180, 28.5, 44)"></use>
		<use xlink:href="#cK-special" transform="translate(18.5, 32) scale(2)"></use>
	</g>
</svg>
