<?xml version="1.0" encoding="UTF-8" standalone="no"?>
<svg viewBox="0 0 57 88" xmlns="http://www.w3.org/2000/svg" xmlns:xlink="http://www.w3.org/1999/xlink" aria-labelledby="d10-title">
  <title id="d10-title">10 of diamonds</title>
	<symbol id="d10-suit" width="8" height="10">
		<path d="M 4 0 l 4 5 l -4 5 l -4 -5 z"></path>
	</symbol>
	<symbol id="d10-rank" width="10" height="12">
		<rect width="2" height="12"></rect>
		<path d="M 6 0 h 2 l 2 2 v 8 l -2 2 h -2 l -2 -2 v -8 z m 0 2 v 8 h 2 v -8 z"></path>
	</symbol>
	<symbol id="d10-index" width="57" height="88">
		<use xlink:href="#d10-rank" x="6" y="6"></use>
		<use xlink:href="#d10-suit" x="6" y="20"></use>
	</symbol>
	
	<rect x="1.5" y="1.5" width="54" height="85" fill="#fff"></rect>
	<path d="M 2 0 h 53 l 2 2 v 84 l -2 2 h -53 l -2 -2 v -84 z m 0 2 v 84 h 53 v -84 z" fill="var(--color-dark)"></path>
	<g style="fill: var(--color-error);">
		<use xlink:href="#d10-index"></use>
		<use xlink:href="#d10-index" transform="rotate(180, 28.5, 44)"></use>
		<use xlink:href="#d10-suit" transform="translate(17, 11) scale(0.9)"></use>
		<use xlink:href="#d10-suit" transform="translate(32.8, 11) scale(0.9)"></use>
		<use xlink:href="#d10-suit" transform="translate(24.9, 20.5) scale(0.9)"></use>
		<use xlink:href="#d10-suit" transform="translate(17, 30) scale(0.9)"></use>
		<use xlink:href="#d10-suit" transform="translate(32.8, 30) scale(0.9)"></use>
		<g transform="rotate(180, 28.5, 44)">
			<use xlink:href="#d10-suit" transform="translate(17, 11) scale(0.9)"></use>
			<use xlink:href="#d10-suit" transform="translate(32.8, 11) scale(0.9)"></use>
			<use xlink:href="#d10-suit" transform="translate(24.9, 20.5) scale(0.9)"></use>
			<use xlink:href="#d10-suit" transform="translate(32.8, 30) scale(0.9)"></use>
			<use xlink:href="#d10-suit" transform="translate(17, 30) scale(0.9)"></use>
		</g>
	</g>
</svg>
