<?xml version="1.0" encoding="UTF-8" standalone="no"?>
<svg viewBox="0 0 57 88" xmlns="http://www.w3.org/2000/svg" xmlns:xlink="http://www.w3.org/1999/xlink" aria-labelledby="d2-title">
  <title id="d2-title">2 of diamonds</title>
	<symbol id="d2-suit" width="8" height="10">
		<path d="M 4 0 l 4 5 l -4 5 l -4 -5 z"></path>
	</symbol>
	<symbol id="d2-rank" width="8" height="12">
		<path d="M 2 0 h 4 l 2 2 v 4 l -2 2 h -4 v 2 h 6 v 2 h -8 v -4 l 2 -2 h 4 v -4 h -4 v 2 h -2 v -2 z"></path>
	</symbol>
	<symbol id="d2-index" width="57" height="88">
		<use xlink:href="#d2-rank" x="6" y="6"></use>
		<use xlink:href="#d2-suit" x="6" y="20"></use>
	</symbol>
	
	<rect x="1.5" y="1.5" width="54" height="85" fill="#fff"></rect>
	<path d="M 2 0 h 53 l 2 2 v 84 l -2 2 h -53 l -2 -2 v -84 z m 0 2 v 84 h 53 v -84 z" fill="var(--color-dark)"></path>
	<g style="fill: var(--color-error);">
		<use xlink:href="#d2-index"></use>
		<use xlink:href="#d2-index" transform="rotate(180, 28.5, 44)"></use>
		<use xlink:href="#d2-suit" transform="translate(22.5, 11) scale(1.5)"></use>
		<use xlink:href="#d2-suit" transform="rotate(180, 28.5, 44) translate(22.5, 11) scale(1.5)"></use>
	</g>
</svg>
