<?xml version="1.0" encoding="UTF-8" standalone="no"?>
<svg viewBox="0 0 57 88" xmlns="http://www.w3.org/2000/svg" xmlns:xlink="http://www.w3.org/1999/xlink" aria-labelledby="dQ-title">
  <title id="dQ-title">Queen of diamonds</title>
	<symbol id="dQ-suit" width="8" height="10">
		<path d="M 4 0 l 4 5 l -4 5 l -4 -5 z"></path>
	</symbol>
	<symbol id="dQ-rank" width="8" height="12">
		<path d="M 2 0 h 4 l 2 2 v 6 l -1 1 l 1 1 v 2 h -2 v -2 h -4 l -2 -2 v -6 z m 0 2 v 6 h 4 v -6 z"></path>
	</symbol>
	<symbol id="dQ-special" width="10" height="12">
		<path d="M 1 0 l 2 3 l 2 -3 l 2 3 l 2 -3 v 10 h -8 z"></path>
		<rect x="1" y="11" width="8" height="1"></rect>
	</symbol>
	<symbol id="dQ-index" width="57" height="88">
		<use xlink:href="#dQ-rank" x="6" y="6"></use>
		<use xlink:href="#dQ-suit" x="6" y="20"></use>
	</symbol>
	
	<rect x="1.5" y="1.5" width="54" height="85" fill="#fff"></rect>
	<path d="M 2 0 h 53 l 2 2 v 84 l -2 2 h -53 l -2 -2 v -84 z m 0 2 v 84 h 53 v -84 z" fill="var(--color-dark)"></path>
	<g style="fill: var(--color-error);">
		<use xlink:href="#dQ-index"></use>
		<use xlink:href="#dQ-index" transform="rotate(180, 28.5, 44)"></use>
		<use xlink:href="#dQ-special" transform="translate(18.5, 32) scale(2)"></use>
	</g>
</svg>
