<?xml version="1.0" encoding="UTF-8" standalone="no"?>
<svg viewBox="0 0 57 88" xmlns="http://www.w3.org/2000/svg" xmlns:xlink="http://www.w3.org/1999/xlink" aria-labelledby="h5-title">
  <title id="h5-title">5 of hearts</title>
	<symbol id="h5-suit" width="8" height="10">
		<path d="M 2 0 l 2 2 l 2 -2 l 2 2 v 3 l -4 5 l -4 -5 v -3 z"></path>
	</symbol>
	<symbol id="h5-rank" width="8" height="12">
		<path d="M 0 0 h 8 v 2 h -6 v 2 h 4 l 2 2 v 4 l -2 2 h -4 l -2 -2 v -2 h 2 v 2 h 4 v -4 h -6 z"></path>
	</symbol>
	<symbol id="h5-index" width="57" height="88">
		<use xlink:href="#h5-rank" x="6" y="6"></use>
		<use xlink:href="#h5-suit" x="6" y="20"></use>
	</symbol>
	
	<rect x="1.5" y="1.5" width="54" height="85" fill="#fff"></rect>
	<path d="M 2 0 h 53 l 2 2 v 84 l -2 2 h -53 l -2 -2 v -84 z m 0 2 v 84 h 53 v -84 z" fill="var(--color-dark)"></path>
	<g style="fill: var(--color-error);">
		<use xlink:href="#h5-index"></use>
		<use xlink:href="#h5-index" transform="rotate(180, 28.5, 44)"></use>
		<use xlink:href="#h5-suit" transform="translate(16, 11) scale(1.5)"></use>
		<use xlink:href="#h5-suit" transform="translate(29, 11) scale(1.5)"></use>
		<use xlink:href="#h5-suit" transform="translate(22.5, 36.5) scale(1.5)"></use>
		<g transform="rotate(180, 28.5, 44)">
			<use xlink:href="#h5-suit" transform="translate(16, 11) scale(1.5)"></use>
			<use xlink:href="#h5-suit" transform="translate(29, 11) scale(1.5)"></use>
		</g>
	</g>
</svg>
