<?xml version="1.0" encoding="UTF-8" standalone="no"?>
<svg viewBox="0 0 57 88" xmlns="http://www.w3.org/2000/svg" xmlns:xlink="http://www.w3.org/1999/xlink" aria-labelledby="s8-title">
  <title id="s8-title">8 of spades</title>
	<symbol id="s8-suit" width="8" height="10">
		<path d="M 4 0 l 4 5 v 2 l -1 1 h -1 l -1 -1 l 1 3 h -4 l 1 -3 l -1 1 h -1 l -1 -1 v -2 z"></path>
	</symbol>
	<symbol id="s8-rank" width="8" height="12">
		<path d="M 2 0 h 4 l 2 2 v 3 l -1 1 l 1 1 v 3 l -2 2 h -4 l -2 -2 v -3 l 1 -1 l -1 -1 v -3 z m 0 2 v 2 l 1 1 h 2 l 1 -1 v -2 z m 0 6 v 2 h 4 v -2 l -1 -1 h -2 z"></path>
	</symbol>
	<symbol id="s8-index" width="57" height="88">
		<use xlink:href="#s8-rank" x="6" y="6"></use>
		<use xlink:href="#s8-suit" x="6" y="20"></use>
	</symbol>
	
	<rect x="1.5" y="1.5" width="54" height="85" fill="#fff"></rect>
	<path d="M 2 0 h 53 l 2 2 v 84 l -2 2 h -53 l -2 -2 v -84 z m 0 2 v 84 h 53 v -84 z" fill="var(--color-dark)"></path>
	<g style="fill: var(--color-dark);">
		<use xlink:href="#s8-index"></use>
		<use xlink:href="#s8-index" transform="rotate(180, 28.5, 44)"></use>
		<use xlink:href="#s8-suit" transform="translate(16, 11) scale(1.2)"></use>
		<use xlink:href="#s8-suit" transform="translate(31.4, 11) scale(1.2)"></use>
		<use xlink:href="#s8-suit" transform="translate(23.7, 24.5) scale(1.2)"></use>
		<use xlink:href="#s8-suit" transform="translate(16, 38) scale(1.2)"></use>
		<use xlink:href="#s8-suit" transform="translate(31.4, 38) scale(1.2)"></use>
		<g transform="rotate(180, 28.5, 44)">
			<use xlink:href="#s8-suit" transform="translate(16, 11) scale(1.2)"></use>
			<use xlink:href="#s8-suit" transform="translate(31.4, 11) scale(1.2)"></use>
			<use xlink:href="#s8-suit" transform="translate(23.7, 24.5) scale(1.2)"></use>
		</g>
	</g>
</svg>
