<?xml version="1.0" encoding="UTF-8" standalone="no"?>
<svg viewBox="0 0 57 88" xmlns="http://www.w3.org/2000/svg" xmlns:xlink="http://www.w3.org/1999/xlink" aria-labelledby="sA-title">
  <title id="sA-title">Ace of spades</title>
	<symbol id="sA-suit" width="8" height="10">
		<path d="M 4 0 l 4 5 v 2 l -1 1 h -1 l -1 -1 l 1 3 h -4 l 1 -3 l -1 1 h -1 l -1 -1 v -2 z"></path>
	</symbol>
	<symbol id="sA-rank" width="8" height="12">
		<path d="M 2 0 h 4 l 2 2 v 10 h -2 v -5 h -4 v 5 h -2 v -10 z m 0 2 v 3 h 4 v -3 z"></path>
	</symbol>
	<symbol id="sA-index" width="57" height="88">
		<use xlink:href="#sA-rank" x="6" y="6"></use>
		<use xlink:href="#sA-suit" x="6" y="20"></use>
	</symbol>
	
	<rect x="1.5" y="1.5" width="54" height="85" fill="#fff"></rect>
	<path d="M 2 0 h 53 l 2 2 v 84 l -2 2 h -53 l -2 -2 v -84 z m 0 2 v 84 h 53 v -84 z" fill="var(--color-dark)"></path>
	<g style="fill: var(--color-dark);">
		<use xlink:href="#sA-index"></use>
		<use xlink:href="#sA-index" transform="rotate(180, 28.5, 44)"></use>
		<use xlink:href="#sA-suit" transform="translate(20.5, 34) scale(2)"></use>
	</g>
</svg>
